<svg version="1.1" viewBox="0 0 560 546.41" >
 <g transform="translate(-69.999 -6.7931)">
  <path d="m625.74 274.17-68.227-21.641c-7.7109-2.4258-13.359-8.5859-15.156-16.48-1.8164-7.875 0.63281-15.867 6.5078-21.418l52.137-49.055c1.9375-1.8359 2.4688-4.7109 1.3047-7.1172-1.1406-2.4062-3.7344-3.793-6.3828-3.4062l-70.797 10.199c-7.9961 1.1406-15.789-1.9375-20.824-8.2617-5.0586-6.3008-6.3242-14.582-3.4258-22.129l25.641-66.781c0.95703-2.4883 0.20312-5.3242-1.8984-6.9766-2.082-1.6719-4.9961-1.7969-7.2188-0.30469l-59.477 39.855c-6.7109 4.5078-15.074 5.0977-22.336 1.5898-7.2812-3.5078-12.016-10.402-12.688-18.461l-5.8828-71.367c-0.22266-2.6523-2.1406-4.875-4.7305-5.4648-2.6133-0.58984-5.3047 0.57031-6.6484 2.875l-36.184 61.723c-4.1016 6.957-11.363 11.137-19.438 11.137-8.0977 0-15.359-4.1797-19.457-11.137l-36.191-61.727c-1.3477-2.3047-4.0391-3.4688-6.6289-2.875-2.6133 0.58984-4.5273 2.8164-4.7539 5.4648l-5.875 71.371c-0.67188 8.0586-5.4062 14.949-12.688 18.461-7.2617 3.5078-15.605 2.918-22.336-1.5898l-59.477-39.855c-2.2227-1.4883-5.1406-1.3672-7.2188 0.30469-2.082 1.6523-2.8555 4.4883-1.8984 6.9766l25.641 66.781c2.918 7.5469 1.6328 15.828-3.4062 22.129-5.0391 6.3242-12.828 9.4023-20.844 8.2617l-70.801-10.203c-2.6523-0.38672-5.2227 1-6.3828 3.4062-1.1641 2.4062-0.63281 5.2812 1.3047 7.0977l52.137 49.074c5.875 5.5469 8.3203 13.543 6.5273 21.418-1.7969 7.875-7.4648 14.031-15.176 16.48l-68.227 21.641c-2.5508 0.80078-4.2656 3.1641-4.2656 5.8359s1.7148 5.0195 4.2617 5.832l68.227 21.621c7.7109 2.4492 13.379 8.6094 15.176 16.48 1.793 7.875-0.65234 15.891-6.5273 21.418l-52.137 49.074c-1.9375 1.8359-2.4688 4.7109-1.3047 7.1172 1.1641 2.4062 3.7344 3.793 6.3828 3.3867l70.797-10.18c7.9961-1.1641 15.789 1.918 20.844 8.2422 5.0391 6.3242 6.3242 14.605 3.4062 22.152l-25.641 66.781c-0.95703 2.4883-0.18359 5.3047 1.8984 6.9766 2.082 1.6523 4.9961 1.7734 7.2188 0.30469l59.477-39.875c6.7109-4.4883 15.074-5.0781 22.336-1.5703 7.2812 3.5078 12.016 10.402 12.688 18.461l5.875 71.348c0.22266 2.6719 2.1406 4.875 4.7539 5.4648 0.44922 0.10156 0.89844 0.16406 1.3477 0.16406 2.1406 0 4.1602-1.1211 5.2812-3.0195l36.184-61.723c4.1016-6.9766 11.363-11.137 19.457-11.137 8.0781 0 15.34 4.1602 19.438 11.137l36.184 61.723c1.3477 2.2852 4.0391 3.4453 6.6484 2.8555 2.5898-0.58984 4.5078-2.793 4.7305-5.4648l5.875-71.348c0.67188-8.0586 5.4062-14.949 12.688-18.461 7.2617-3.5078 15.625-2.918 22.336 1.5703l59.477 39.875c2.2227 1.4688 5.1406 1.3477 7.2188-0.30469 2.1016-1.6719 2.8555-4.4883 1.8984-6.9766l-25.641-66.781c-2.8945-7.5469-1.6328-15.828 3.4258-22.152 5.0391-6.3242 12.828-9.4023 20.824-8.2422l70.797 10.199c2.6523 0.38672 5.2422-1 6.3828-3.4062 1.1641-2.4062 0.63281-5.2812-1.3047-7.1172l-52.137-49.074c-5.875-5.5273-8.3203-13.543-6.5078-21.418 1.793-7.875 7.4453-14.031 15.156-16.48l68.227-21.621c2.5703-0.8125 4.2852-3.1602 4.2852-5.832s-1.7148-5.0352-4.2617-5.832zm-275.73 165.26c-87.91 0-159.42-71.512-159.42-159.42 0-87.91 71.512-159.42 159.42-159.42 87.891 0 159.42 71.512 159.42 159.42 0 87.91-71.531 159.42-159.42 159.42z"/>
  <path d="m492.8 244.31c19.715 78.859-28.23 158.77-107.09 178.49-78.859 19.715-158.77-28.234-178.49-107.09-19.715-78.863 28.234-158.77 107.09-178.49s158.77 28.23 178.49 107.09"/>
 </g>
</svg>
